<svg width="2846" height="1097" viewBox="0 0 2846 1097" fill="none" xmlns="http://www.w3.org/2000/svg">
<path d="M356.859 393.745L360.727 397.612L356.859 393.745ZM315.771 435.975L311.763 432.254H311.763L315.771 435.975ZM292.816 475.923L288.001 473.33H288.001L292.816 475.923ZM271.384 661.711L276.82 661.107L271.384 661.711ZM290.787 750.991L295.679 748.545L290.787 750.991ZM351.28 825.306L348.181 829.813H348.181L351.28 825.306ZM437.769 872.989L435.577 878L437.769 872.989ZM520.201 890.363L520.879 884.937H520.879L520.201 890.363ZM562.431 899.367L562.275 904.834L562.431 899.367ZM691.785 913.064L691.988 907.598L691.785 913.064ZM785.377 919.912L785.247 925.38L785.377 919.912ZM824.183 924.477L824.393 919.012L824.183 924.477ZM868.316 930.818L867.129 936.157L868.316 930.818ZM1172.93 930.818L1173.36 936.27L1172.93 930.818ZM1263.73 919.912L1261.85 914.778L1263.73 919.912ZM1525.99 932.213L1524.09 937.341L1525.99 932.213ZM1621.11 965.059L1618.93 970.078L1621.11 965.059ZM1696.18 996.51L1695.2 1001.89L1696.18 996.51ZM1755.79 1004.88L1755.34 1010.33L1755.79 1004.88ZM1815.64 1006.66L1817.16 1011.91L1815.64 1006.66ZM1855.34 981.545L1858.94 985.661L1855.34 981.545ZM1908.48 935.384L1910.37 940.512L1908.48 935.384ZM2018.68 938.047L2017.85 943.452L2018.68 938.047ZM2140.93 941.598L2141.83 946.992L2140.93 941.598ZM2201.3 926.887L2202.48 932.226H2202.48L2201.3 926.887ZM2381.89 917.629L2384.73 922.301L2381.89 917.629ZM2421.58 895.309L2418.38 890.876L2421.58 895.309ZM2487.27 850.162L2483.88 845.872L2487.27 850.162ZM2528.87 801.21L2533.42 804.244L2528.87 801.21ZM2568.82 716.496L2563.55 717.96V717.96L2568.82 716.496ZM2555.37 650.424L2550.13 651.996L2550.13 651.996L2555.37 650.424ZM2547.13 614.027L2552.59 613.754V613.754L2547.13 614.027ZM2532.42 535.274L2528.1 538.631V538.631L2532.42 535.274ZM2523.03 511.305L2527.93 508.859L2527.92 508.856L2523.03 511.305ZM2522.91 511.055L2518.02 513.501L2518.02 513.504L2522.91 511.055ZM2506.55 484.42L2510.56 480.698V480.698L2506.55 484.42ZM2482.71 430.902L2477.54 432.691V432.692L2482.71 430.902ZM2459.25 400.72L2455.01 404.183V404.183L2459.25 400.72ZM2432.49 380.175L2435.94 375.934V375.934L2432.49 380.175ZM2394.44 355.065L2392 359.957V359.957L2394.44 355.065ZM2343.46 333.253L2343.25 338.718L2343.46 333.253ZM2293.75 320.064L2295.99 315.076L2293.75 320.064ZM2237.19 306.367L2238.69 301.109L2237.19 306.367ZM2116.84 293.305L2114.18 288.524V288.524L2116.84 293.305ZM2071.06 303.704L2070.08 298.323L2071.06 303.704ZM2019.82 325.263L2022.27 330.155L2019.82 325.263ZM1993.57 343.525L1991.23 338.582L1993.57 343.525ZM1975.94 355.573L1972.28 351.507V351.507L1975.94 355.573ZM1953.12 373.834L1949.25 369.967V369.967L1953.12 373.834ZM1789.52 265.786L1791.15 271.006L1789.52 265.786ZM1834.92 256.908L1836.58 262.12L1834.92 256.908ZM1861.81 253.358L1861.6 247.892L1861.81 253.358ZM2300.09 472.499L2294.8 471.099V471.099L2300.09 472.499ZM2259.51 587.142L2263.71 590.643L2259.51 587.142ZM2226.41 627.724L2231.01 630.681L2226.41 627.724ZM2193.31 667.037L2196.71 671.32L2193.31 667.037ZM2156.78 698.488L2160.55 702.458L2156.78 698.488ZM2135.23 719.033L2137.94 723.781V723.781L2135.23 719.033ZM2081.45 759.995L2079.3 754.968L2081.45 759.995ZM2065.48 772.55L2068.33 777.216L2065.48 772.55ZM2006.63 822.262L2010.36 826.265L2006.63 822.262ZM1970.11 838.241L1968.05 833.176L1970.11 838.241ZM2358.55 520.436L2360.56 525.522L2358.55 520.436ZM2427.41 494.058L2425.21 489.052L2427.41 494.058ZM2306.94 586.635L2311.65 583.862L2306.94 586.635ZM2318.86 599.19L2321.82 594.589L2318.86 599.19ZM2381.63 626.709L2379.04 631.525L2381.63 626.709ZM2436.29 645.985L2438.51 640.988L2436.29 645.985ZM2314.8 651.058L2310.73 654.709L2314.8 651.058ZM2381.76 729.432L2385.63 725.564L2381.76 729.432ZM2454.68 799.942L2450.45 803.406L2454.68 799.942ZM2265.34 832.027L2261.3 835.715V835.715L2265.34 832.027ZM2315.56 887.447L2311.01 890.48L2315.56 887.447ZM2215.63 525.001L2216.03 519.547L2215.63 525.001ZM2170.61 518.28L2171.15 523.722L2170.61 518.28ZM2117.85 530.708L2120.1 535.696L2117.85 530.708ZM2074.61 556.959L2072.16 552.068L2074.61 556.959ZM2033.01 574.714L2034.85 579.864L2033.01 574.714ZM1987.86 601.472L1990.82 606.074L1990.82 606.073L1987.86 601.472ZM1986.24 602.518L1989.19 607.119L1989.19 607.119L1986.24 602.518ZM1954.89 624.3L1951.43 620.067L1954.89 624.3ZM1834.29 465.777L1830.79 461.576V461.576L1834.29 465.777ZM1800.55 477.064L1799.56 471.686L1800.55 477.064ZM1735.62 487.21L1734.86 481.794L1735.62 487.21ZM1753.25 707.112L1751.58 701.905L1753.25 707.112ZM1680.2 725.881L1680.4 731.346L1680.2 725.881ZM1493.78 728.037L1495.28 722.778L1493.78 728.037ZM1449.01 716.75L1447.28 721.938L1449.01 716.75ZM1424.03 709.902L1424.35 704.442L1424.03 709.902ZM1598.03 349.485L1602.9 351.968L1598.03 349.485ZM1588.51 396.028L1583.11 395.196V395.196L1588.51 396.028ZM1542.23 428.62L1546.91 425.79V425.79L1542.23 428.62ZM1522.19 396.154L1526.19 392.423L1522.19 396.154ZM1481.1 344.159L1476.62 347.295L1481.1 344.159ZM1456.5 317.274L1460.84 313.951V313.951L1456.5 317.274ZM1435.44 293.432L1438.82 289.131L1438.82 289.131L1435.44 293.432ZM1434.96 293.053L1438.34 288.752L1438.34 288.752L1434.96 293.053ZM1161.39 247.651L1160.07 242.345L1161.39 247.651ZM1114.85 251.582L1116.04 256.921L1114.85 251.582ZM1003.63 288.867L1005.77 293.9L1003.63 288.867ZM933.373 313.723L931.842 308.472L933.373 313.723ZM832.807 364.957L836.674 368.825L832.807 364.957ZM764.325 415.431L760.57 411.455H760.57L764.325 415.431ZM703.199 477.064L707.691 480.184L703.199 477.064ZM692.419 514.856L697.253 517.415V517.415L692.419 514.856ZM638.775 577.504L633.316 577.183L638.775 577.504ZM660.461 610.477L656.228 613.94L660.461 610.477ZM726.787 665.515L723.851 670.13V670.13L726.787 665.515ZM746.063 674.393L744.081 679.49H744.081L746.063 674.393ZM767.115 684.284L765.115 689.375H765.115L767.115 684.284ZM822.534 706.478L820.193 711.42L822.534 706.478ZM946.182 749.722L948.336 744.695L946.182 749.722ZM1045.1 780.159L1046.43 774.853L1045.1 780.159ZM1097.6 793.221L1096.14 798.491L1097.6 793.221ZM1145.41 807.805L1146.74 802.499L1145.41 807.805ZM1248.39 847.88L1250.58 842.869V842.869L1248.39 847.88ZM1143.26 513.588L1143.01 519.051L1143.26 513.588ZM1220.49 508.008L1219.5 502.629L1220.49 508.008ZM1301.78 493.043L1300.37 487.759L1301.78 493.043ZM1330.44 481.63L1329.87 476.19L1330.44 481.63ZM1353.77 492.029L1358.72 489.704L1353.77 492.029ZM1398.16 599.824L1403.15 597.59L1398.16 599.824ZM1410.21 632.289L1415.64 631.685L1410.21 632.289ZM1444.32 546.56L1440.82 550.762L1444.32 546.56ZM1502.15 605.404L1505.97 601.491L1502.15 605.404ZM1560.99 661.838L1564.55 657.685L1560.99 661.838ZM1589.4 684.792L1593.16 680.816L1589.4 684.792ZM939.587 224.189L938.144 229.465L939.587 224.189ZM887.592 212.269L887.431 217.735L887.592 212.269ZM852.083 215.693L849.82 210.714V210.714L852.083 215.693ZM809.98 223.555L810.753 228.97L809.98 223.555ZM731.86 239.154L730.648 233.821L731.86 239.154ZM585.385 272.634L584.013 267.34L585.385 272.634ZM513.479 280.623L513.783 286.084L513.479 280.623ZM415.069 616.817L416.554 611.554L415.069 616.817ZM482.282 634.445L482.718 628.993L482.282 634.445ZM355.211 709.902L352.14 705.376L355.211 709.902ZM416.844 675.661L414.851 670.568L416.844 675.661ZM428.119 308.09C411.283 318.766 398.761 333.147 387.375 347.734C375.827 362.531 365.668 377.202 352.992 389.878L360.727 397.612C374.035 384.304 384.956 368.612 395.998 354.464C407.204 340.107 418.785 326.961 433.977 317.327L428.119 308.09ZM352.992 389.878C339.158 403.712 325.178 417.807 311.763 432.254L319.778 439.697C333.044 425.411 346.899 411.44 360.727 397.612L352.992 389.878ZM311.763 432.254C305.461 439.04 301.427 445.849 298.001 452.697C294.402 459.89 291.988 465.925 288.001 473.33L297.632 478.516C301.554 471.233 304.794 463.565 307.783 457.592C310.945 451.273 314.434 445.452 319.778 439.697L311.763 432.254ZM288.001 473.33C257.507 529.962 259.145 601.084 265.949 662.315L276.82 661.107C270.036 600.053 268.861 531.947 297.632 478.516L288.001 473.33ZM265.949 662.315C269.218 691.739 271.522 724.69 285.896 753.437L295.679 748.545C282.386 721.958 280.182 691.366 276.82 661.107L265.949 662.315ZM285.896 753.437C288.248 758.141 290.825 762.912 293.611 767.681L303.056 762.163C300.39 757.6 297.925 753.037 295.679 748.545L285.896 753.437ZM293.611 767.681C307.224 790.983 326.027 814.582 348.181 829.813L354.378 820.799C334.007 806.794 316.191 784.649 303.056 762.163L293.611 767.681ZM348.181 829.813C375.759 848.772 404.892 864.575 435.577 878L439.961 867.979C409.839 854.8 381.324 839.324 354.378 820.799L348.181 829.813ZM435.577 878C461.504 889.343 493.136 892.492 519.522 895.79L520.879 884.937C493.828 881.555 464.091 878.535 439.961 867.979L435.577 878ZM519.522 895.79C525.96 896.595 532.429 898.584 539.67 900.628C546.698 902.61 554.36 904.608 562.275 904.834L562.587 893.901C556.163 893.717 549.665 892.082 542.64 890.1C535.828 888.178 528.351 885.871 520.879 884.937L519.522 895.79ZM562.275 904.834C569.551 905.042 576.658 905.601 583.972 906.123C591.236 906.642 598.663 907.119 606.31 907.119V896.181C599.086 896.181 591.997 895.73 584.75 895.213C577.555 894.699 570.157 894.117 562.587 893.901L562.275 904.834ZM606.31 907.119C620.188 907.119 633.821 909.598 647.982 912.325C661.99 915.021 676.569 917.973 691.583 918.529L691.988 907.598C677.982 907.08 664.291 904.325 650.05 901.583C635.963 898.871 621.369 896.181 606.31 896.181V907.119ZM691.583 918.529C706.787 919.092 722.303 920.603 738.044 922.085C753.72 923.561 769.604 925.007 785.247 925.38L785.507 914.444C770.301 914.082 754.78 912.674 739.069 911.195C723.422 909.722 707.567 908.175 691.988 907.598L691.583 918.529ZM785.247 925.38C791.494 925.528 797.551 926.479 803.97 927.522C810.283 928.549 816.99 929.674 823.973 929.943L824.393 919.012C818.206 918.774 812.185 917.776 805.725 916.726C799.371 915.693 792.61 914.614 785.507 914.444L785.247 925.38ZM823.973 929.943C836.999 930.444 853.986 933.237 867.129 936.157L869.502 925.479C856.036 922.487 838.337 919.549 824.393 919.012L823.973 929.943ZM867.129 936.157C908.461 945.342 951.732 941.36 992.09 941.36V930.422C950.327 930.422 909.274 934.318 869.502 925.479L867.129 936.157ZM992.09 941.36C1010.46 941.36 1028.78 940.786 1046.98 940.216C1065.21 939.645 1083.32 939.077 1101.41 939.077V928.139C1083.12 928.139 1064.83 928.713 1046.63 929.283C1028.4 929.854 1010.26 930.422 992.09 930.422V941.36ZM1101.41 939.077C1125.4 939.077 1149.43 938.167 1173.36 936.27L1172.5 925.366C1148.86 927.239 1125.12 928.139 1101.41 928.139V939.077ZM1173.36 936.27C1180.56 935.701 1188.05 935.372 1195.77 935.039C1203.46 934.707 1211.38 934.371 1219.27 933.784C1235.01 932.612 1251 930.418 1265.62 925.046L1261.85 914.778C1248.65 919.628 1233.85 921.729 1218.45 922.876C1210.77 923.448 1203.03 923.778 1195.3 924.111C1187.61 924.443 1179.92 924.778 1172.5 925.366L1173.36 936.27ZM1265.62 925.046C1280.41 919.613 1294.95 910.636 1308.54 903.698C1322.52 896.562 1336.18 891.14 1350.98 891.14V880.202C1333.52 880.202 1317.95 886.615 1303.57 893.955C1288.8 901.495 1275.84 909.638 1261.85 914.778L1265.62 925.046ZM1394.51 890.709C1436.88 908.613 1481.66 921.592 1524.09 937.341L1527.9 927.086C1484.24 910.88 1441.05 898.499 1398.77 880.633L1394.51 890.709ZM1524.09 937.341C1539.92 943.217 1556.21 948.167 1572.15 953.235C1588.15 958.328 1603.87 963.561 1618.93 970.078L1623.28 960.04C1607.68 953.289 1591.51 947.917 1575.46 942.812C1559.34 937.683 1543.41 932.844 1527.9 927.086L1524.09 937.341ZM1618.93 970.078C1631.64 975.574 1642.87 981.889 1655.39 987.94C1667.66 993.867 1680.54 999.203 1695.2 1001.89L1697.17 991.13C1683.92 988.702 1672.06 983.845 1660.15 978.091C1648.5 972.462 1636.15 965.608 1623.28 960.04L1618.93 970.078ZM1695.2 1001.89C1715.34 1005.58 1734.74 1008.64 1755.34 1010.33L1756.23 999.429C1736.15 997.783 1717.15 994.794 1697.17 991.13L1695.2 1001.89ZM1755.34 1010.33C1760.04 1010.72 1764.87 1011.35 1769.9 1012.03C1774.89 1012.7 1780.08 1013.41 1785.28 1013.89C1795.66 1014.86 1806.56 1014.97 1817.16 1011.91L1814.13 1001.4C1805.46 1003.9 1796.15 1003.92 1786.29 1003C1781.36 1002.55 1776.41 1001.87 1771.36 1001.19C1766.36 1000.52 1761.26 999.841 1756.23 999.429L1755.34 1010.33ZM1817.16 1011.91C1835.61 1006.59 1845.95 997.024 1858.94 985.661L1851.74 977.429C1838.54 988.98 1829.9 996.855 1814.13 1001.4L1817.16 1011.91ZM1858.94 985.661C1868.33 977.446 1876.29 967.432 1883.8 959.527C1891.58 951.342 1899.59 944.506 1910.37 940.512L1906.58 930.255C1893.5 935.096 1884.12 943.318 1875.87 951.993C1867.36 960.949 1860.69 969.598 1851.74 977.429L1858.94 985.661ZM1910.37 940.512C1925.57 934.883 1940.45 929.947 1955.91 929.947V919.008C1938.29 919.008 1921.76 924.632 1906.58 930.255L1910.37 940.512ZM1955.91 929.947C1966.43 929.947 1976 932.303 1986.01 935.241C1995.84 938.13 2006.38 941.689 2017.85 943.452L2019.51 932.641C2008.98 931.022 1999.47 927.796 1989.09 924.746C1978.87 921.744 1968.05 919.008 1955.91 919.008V929.947ZM2017.85 943.452C2034.91 946.078 2052.09 945.926 2068.9 945.926V934.987C2051.86 934.987 2035.58 935.114 2019.51 932.641L2017.85 943.452ZM2068.9 945.926C2080.58 945.926 2092.3 947.159 2104.69 947.953C2116.88 948.734 2129.45 949.057 2141.83 946.992L2140.03 936.203C2128.93 938.053 2117.39 937.806 2105.39 937.037C2093.6 936.282 2081.05 934.987 2068.9 934.987V945.926ZM2141.83 946.992C2152.42 945.229 2162.7 942.608 2172.72 939.912C2182.82 937.195 2192.58 934.426 2202.48 932.226L2200.11 921.548C2189.9 923.817 2179.78 926.686 2169.88 929.349C2159.91 932.031 2150.06 934.532 2140.03 936.203L2141.83 946.992ZM2202.48 932.226C2206.03 931.439 2210.21 931.374 2214.93 931.575C2219.32 931.763 2224.69 932.229 2229.2 932.229V921.291C2224.92 921.291 2220.61 920.87 2215.39 920.647C2210.49 920.437 2205.12 920.436 2200.11 921.548L2202.48 932.226ZM2229.2 932.229H2304.65V921.291H2229.2V932.229ZM2304.65 932.229C2310.87 932.229 2317.31 932.512 2324.06 932.734C2330.74 932.953 2337.66 933.107 2344.53 932.816C2358.25 932.235 2372.3 929.87 2384.73 922.301L2379.04 912.957C2368.88 919.141 2356.98 921.341 2344.07 921.888C2337.63 922.16 2331.06 922.019 2324.41 921.801C2317.84 921.586 2311.11 921.291 2304.65 921.291V932.229ZM2384.73 922.301C2391.02 918.47 2397.57 915.268 2404.45 911.734C2411.22 908.252 2418.2 904.498 2424.78 899.743L2418.38 890.876C2412.51 895.117 2406.15 898.559 2399.45 902.006C2392.84 905.401 2385.77 908.861 2379.04 912.957L2384.73 922.301ZM2424.78 899.743C2435.38 892.092 2446.39 885.058 2457.58 877.74C2468.7 870.458 2479.94 862.931 2490.66 854.452L2483.88 845.872C2473.57 854.025 2462.68 861.325 2451.59 868.587C2440.55 875.81 2429.24 883.034 2418.38 890.876L2424.78 899.743ZM2490.66 854.452C2509.03 839.927 2520.79 823.189 2533.42 804.244L2524.32 798.177C2511.72 817.072 2500.78 832.511 2483.88 845.872L2490.66 854.452ZM2533.42 804.244C2537.02 798.835 2541.74 792.739 2546.88 785.896C2551.96 779.142 2557.37 771.778 2562.07 764.154C2571.3 749.195 2578.75 731.811 2574.09 715.032L2563.55 717.96C2566.88 729.969 2561.79 743.786 2552.76 758.41C2548.34 765.576 2543.19 772.599 2538.14 779.322C2533.15 785.957 2528.15 792.43 2524.32 798.177L2533.42 804.244ZM2574.09 715.032C2573.82 714.076 2573.52 713.083 2573.24 712.16C2572.95 711.212 2572.68 710.314 2572.44 709.432C2571.94 707.614 2571.66 706.201 2571.63 705.129C2571.6 704.053 2571.83 703.967 2571.66 704.176C2571.43 704.476 2571.43 704.101 2572.92 703.915L2571.56 693.061C2568.21 693.481 2565.12 694.777 2563.03 697.464C2561.01 700.062 2560.62 703.079 2560.7 705.473C2560.77 707.87 2561.33 710.291 2561.89 712.322C2562.17 713.364 2562.48 714.394 2562.77 715.333C2563.06 716.298 2563.32 717.153 2563.55 717.96L2574.09 715.032ZM2572.92 703.915C2574.79 703.681 2576.12 702.581 2576.86 701.462C2577.49 700.518 2577.67 699.619 2577.73 699.206C2577.87 698.357 2577.79 697.628 2577.75 697.341C2577.67 696.629 2577.48 695.868 2577.32 695.238C2576.96 693.892 2576.39 692.095 2575.7 690.075C2574.32 685.994 2572.32 680.547 2570.24 674.964C2566 663.568 2561.54 651.942 2560.61 648.852L2550.13 651.996C2551.2 655.539 2555.92 667.851 2559.99 678.781C2562.07 684.362 2564.02 689.675 2565.34 693.587C2566.01 695.564 2566.49 697.072 2566.74 698.043C2566.88 698.572 2566.9 698.723 2566.89 698.639C2566.89 698.598 2566.87 698.491 2566.87 698.335C2566.87 698.197 2566.87 697.894 2566.93 697.499C2566.98 697.169 2567.14 696.335 2567.73 695.437C2568.44 694.363 2569.74 693.289 2571.56 693.061L2572.92 703.915ZM2560.61 648.852C2557.53 638.567 2553.07 623.296 2552.59 613.754L2541.67 614.3C2542.23 625.463 2547.19 642.171 2550.13 651.996L2560.61 648.852ZM2552.59 613.754C2552.35 608.978 2551.01 604.403 2549.97 600.612C2548.86 596.592 2548.03 593.26 2548.03 589.932H2537.1C2537.1 594.926 2538.34 599.588 2539.42 603.509C2540.56 607.659 2541.5 610.97 2541.67 614.301L2552.59 613.754ZM2548.03 589.932C2548.03 582.397 2547.81 571.424 2546.39 560.75C2545 550.359 2542.34 539.121 2536.74 531.916L2528.1 538.631C2531.77 543.342 2534.18 551.971 2535.55 562.199C2536.88 572.146 2537.1 582.544 2537.1 589.932H2548.03ZM2536.74 531.916C2535.15 529.871 2533.91 526.579 2532.55 522.102C2531.32 518.077 2529.94 512.891 2527.93 508.859L2518.14 513.751C2519.62 516.71 2520.64 520.556 2522.08 525.291C2523.39 529.573 2525.1 534.77 2528.1 538.631L2536.74 531.916ZM2527.92 508.856L2527.8 508.606L2518.02 513.504L2518.14 513.754L2527.92 508.856ZM2527.8 508.609C2523.51 500.018 2517.79 488.492 2510.56 480.698L2502.54 488.141C2508.49 494.554 2513.52 504.506 2518.02 513.501L2527.8 508.609ZM2510.56 480.698C2504.84 474.538 2500.67 466.252 2497.16 457C2493.54 447.469 2491.07 438.342 2487.87 429.113L2477.54 432.692C2480.32 440.734 2483.34 451.438 2486.93 460.885C2490.63 470.609 2495.4 480.446 2502.54 488.141L2510.56 480.698ZM2487.87 429.113C2485.2 421.389 2480.85 415.719 2476.34 410.842C2474.13 408.45 2471.77 406.128 2469.63 403.958C2467.44 401.735 2465.37 399.574 2463.48 397.257L2455.01 404.183C2457.24 406.907 2459.59 409.36 2461.84 411.641C2464.15 413.976 2466.26 416.049 2468.31 418.262C2472.31 422.596 2475.56 426.974 2477.54 432.691L2487.87 429.113ZM2463.48 397.257C2459.5 392.394 2454.34 388.601 2449.5 385.329C2444.43 381.899 2439.9 379.154 2435.94 375.934L2429.03 384.417C2433.49 388.047 2438.9 391.367 2443.38 394.392C2448.09 397.576 2452.11 400.63 2455.01 404.183L2463.48 397.257ZM2435.94 375.934C2424.36 366.508 2410.49 356.977 2396.89 350.174L2392 359.957C2404.71 366.312 2417.9 375.351 2429.03 384.417L2435.94 375.934ZM2396.89 350.174C2393.32 348.388 2389.44 346.208 2385.23 343.846C2381.07 341.51 2376.62 339.017 2372.09 336.732C2363.16 332.227 2353.24 328.156 2343.67 327.788L2343.25 338.718C2350.33 338.99 2358.47 342.113 2367.16 346.498C2371.44 348.658 2375.69 351.034 2379.88 353.384C2384.02 355.708 2388.14 358.031 2392 359.957L2396.89 350.174ZM2343.67 327.788C2340.5 327.666 2337.23 326.388 2332.71 324.613C2328.56 322.989 2323.31 320.935 2317.59 320.935V331.874C2320.94 331.874 2324.33 333.079 2328.71 334.797C2332.71 336.364 2337.85 338.51 2343.25 338.718L2343.67 327.788ZM2317.59 320.935C2311.34 320.935 2302.63 318.064 2295.99 315.076L2291.5 325.051C2298.47 328.186 2308.93 331.874 2317.59 331.874V320.935ZM2295.99 315.076C2286.54 310.823 2276.39 308.602 2266.65 306.806C2256.71 304.972 2247.43 303.605 2238.69 301.109L2235.68 311.626C2245.09 314.314 2255.27 315.828 2264.67 317.563C2274.27 319.335 2283.33 321.371 2291.5 325.051L2295.99 315.076ZM2238.69 301.109C2224.98 297.191 2209.49 295.826 2195.59 295.826V306.764C2208.9 306.764 2223.29 308.084 2235.68 311.626L2238.69 301.109ZM2195.59 295.826C2190.23 295.826 2184.6 294.343 2178.12 292.591C2171.96 290.923 2164.92 288.977 2157.93 288.977V299.916C2163.2 299.916 2168.78 301.394 2175.27 303.15C2181.45 304.822 2188.52 306.764 2195.59 306.764V295.826ZM2157.93 288.977C2155.71 288.977 2152.81 288.618 2149.24 288.07C2145.83 287.546 2141.78 286.843 2137.87 286.338C2133.92 285.827 2129.74 285.463 2125.79 285.641C2121.87 285.818 2117.75 286.539 2114.18 288.524L2119.49 298.086C2120.99 297.252 2123.21 296.707 2126.28 296.569C2129.3 296.432 2132.76 296.706 2136.47 297.186C2140.22 297.67 2143.87 298.31 2147.58 298.881C2151.13 299.427 2154.78 299.916 2157.93 299.916V288.977ZM2114.18 288.524C2108.83 291.495 2101.59 293.349 2093.53 294.757C2089.54 295.452 2085.5 296.017 2081.52 296.574C2077.57 297.125 2073.65 297.674 2070.08 298.323L2072.03 309.085C2075.34 308.483 2079.04 307.966 2083.03 307.407C2086.99 306.854 2091.21 306.265 2095.41 305.533C2103.7 304.086 2112.46 301.992 2119.49 298.086L2114.18 288.524ZM2070.08 298.323C2051.84 301.64 2032.25 312.937 2017.38 320.371L2022.27 330.155C2038.24 322.167 2055.8 312.038 2072.03 309.085L2070.08 298.323ZM2017.38 320.371C2011.81 323.157 2007.23 326.973 2003.22 330.267C1999.06 333.683 1995.45 336.582 1991.23 338.582L1995.91 348.468C2001.53 345.807 2006.12 342.039 2010.16 338.721C2014.35 335.281 2017.99 332.296 2022.27 330.155L2017.38 320.371ZM1991.23 338.582C1984.57 341.735 1977.52 346.796 1972.28 351.507L1979.6 359.638C1984.25 355.452 1990.43 351.062 1995.91 348.468L1991.23 338.582ZM1972.28 351.507C1968.6 354.822 1964.73 357.622 1960.74 360.554C1956.84 363.415 1952.77 366.443 1949.25 369.967L1956.98 377.702C1959.84 374.849 1963.25 372.278 1967.21 369.37C1971.08 366.531 1975.43 363.39 1979.6 359.638L1972.28 351.507ZM1949.25 369.967C1941.44 377.772 1933.25 387.207 1925.36 395.529C1917.25 404.081 1909.06 411.934 1900.37 417.728L1906.44 426.829C1916.18 420.336 1925.05 411.758 1933.3 403.054C1941.76 394.121 1949.21 385.478 1956.98 377.702L1949.25 369.967ZM1687.47 295.271C1722.6 289.214 1756.95 281.695 1791.15 271.006L1787.89 260.565C1754.28 271.068 1720.43 278.488 1685.61 284.491L1687.47 295.271ZM1791.15 271.006C1798.22 268.796 1805.4 267.809 1813.07 266.764C1820.6 265.737 1828.62 264.652 1836.58 262.12L1833.26 251.697C1826.35 253.896 1819.26 254.88 1811.59 255.925C1804.06 256.952 1795.98 258.038 1787.89 260.565L1791.15 271.006ZM1836.58 262.12C1843.04 260.065 1854.4 259.105 1862.01 258.823L1861.6 247.892C1854.03 248.173 1841.3 249.14 1833.26 251.697L1836.58 262.12ZM1862.01 258.823C1866.46 258.658 1870.83 258.045 1874.81 257.524C1878.89 256.99 1882.61 256.544 1886.28 256.544V245.606C1881.82 245.606 1877.44 246.148 1873.39 246.678C1869.23 247.223 1865.43 247.751 1861.6 247.892L1862.01 258.823ZM1886.28 256.544C1908.22 256.544 1930.14 259.345 1952.45 262.206C1974.63 265.052 1997.19 267.958 2019.82 267.958V257.019C1998.01 257.019 1976.14 254.218 1953.84 251.357C1931.65 248.511 1909.03 245.606 1886.28 245.606V256.544ZM2299.69 335.535V432.424H2310.63V335.535H2299.69ZM2299.69 432.424C2299.69 445.409 2298.1 458.631 2294.8 471.099L2305.38 473.898C2308.94 460.445 2310.63 446.277 2310.63 432.424H2299.69ZM2294.8 471.099C2293.27 476.897 2290.28 482.842 2287.21 490.039C2284.31 496.837 2281.43 504.595 2281.43 512.573H2292.37C2292.37 507.002 2294.41 501.03 2297.27 494.332C2299.96 488.032 2303.57 480.716 2305.38 473.898L2294.8 471.099ZM2281.43 512.573C2281.43 526.694 2278.32 541.232 2272.69 554.751L2282.78 558.961C2288.93 544.226 2292.37 528.262 2292.37 512.573H2281.43ZM2272.69 554.751C2268.3 565.281 2262.4 575.132 2255.31 583.641L2263.71 590.643C2271.53 581.252 2277.99 570.449 2282.78 558.961L2272.69 554.751ZM2255.31 583.641C2244.67 596.408 2231.45 609.767 2221.81 624.766L2231.01 630.681C2240.18 616.418 2252.2 604.454 2263.71 590.643L2255.31 583.641ZM2221.81 624.766C2212.64 639.026 2202.66 652.631 2189.91 662.754L2196.71 671.32C2210.92 660.038 2221.69 645.178 2231.01 630.681L2221.81 624.766ZM2189.91 662.754C2177.65 672.484 2164.28 683.851 2153.02 694.518L2160.55 702.458C2171.52 692.062 2184.64 680.905 2196.71 671.32L2189.91 662.754ZM2153.02 694.518C2149.51 697.849 2145.72 702.256 2142.45 705.722C2138.94 709.444 2135.7 712.46 2132.51 714.284L2137.94 723.781C2142.63 721.098 2146.8 717.049 2150.4 713.228C2154.25 709.151 2157.29 705.539 2160.55 702.458L2153.02 694.518ZM2132.51 714.284C2122.25 720.15 2113.37 728.735 2105.08 736.324C2096.55 744.132 2088.52 751.014 2079.3 754.968L2083.61 765.022C2094.74 760.249 2104 752.14 2112.46 744.392C2121.17 736.426 2128.99 728.893 2137.94 723.781L2132.51 714.284ZM2079.3 754.968C2075.35 756.662 2072.16 759.569 2069.67 761.912C2066.93 764.486 2064.91 766.485 2062.62 767.883L2068.33 777.216C2071.82 775.079 2074.84 772.068 2077.16 769.883C2079.73 767.466 2081.65 765.862 2083.61 765.022L2079.3 754.968ZM2062.62 767.883C2057.39 771.079 2051.75 773.351 2045.39 776.374C2039.29 779.272 2032.83 782.75 2027.49 788.086L2035.23 795.82C2039.18 791.866 2044.22 789.038 2050.08 786.254C2055.68 783.596 2062.45 780.811 2068.33 777.216L2062.62 767.883ZM2027.49 788.086C2022.26 793.317 2018.35 798.929 2014.71 804.029C2011 809.221 2007.53 813.958 2002.91 818.259L2010.36 826.265C2015.87 821.131 2019.91 815.564 2023.61 810.386C2027.37 805.115 2030.76 800.291 2035.23 795.82L2027.49 788.086ZM2002.91 818.259C1999.25 821.666 1993.88 824.191 1987.44 826.506C1984.25 827.649 1981.01 828.675 1977.69 829.755C1974.43 830.816 1971.11 831.926 1968.05 833.176L1972.17 843.306C1974.84 842.22 1977.82 841.215 1981.08 840.156C1984.27 839.116 1987.75 838.016 1991.13 836.8C1997.83 834.396 2004.99 831.268 2010.36 826.265L2002.91 818.259ZM1968.05 833.176C1963.94 834.85 1960.53 838.095 1957.91 840.899C1956.56 842.35 1955.25 843.869 1954.09 845.198C1952.89 846.573 1951.86 847.742 1950.9 848.704L1958.63 856.439C1959.89 855.175 1961.16 853.738 1962.34 852.382C1963.56 850.979 1964.71 849.641 1965.91 848.365C1968.38 845.713 1970.42 844.02 1972.17 843.306L1968.05 833.176ZM1950.9 848.704C1946.04 853.559 1944.06 859.78 1942.59 864.876C1941 870.401 1939.97 874.6 1937.66 878.072L1946.76 884.139C1950.26 878.896 1951.75 872.59 1953.1 867.908C1954.57 862.797 1955.96 859.108 1958.63 856.439L1950.9 848.704ZM2295.57 560.575C2303.5 551.574 2313.64 545.163 2324.96 539.808C2336.43 534.385 2348.43 530.321 2360.56 525.522L2356.54 515.35C2345.09 519.878 2332.17 524.301 2320.29 529.92C2308.26 535.608 2296.65 542.796 2287.36 553.344L2295.57 560.575ZM2360.56 525.522C2382.66 516.779 2407.36 508.857 2429.62 499.064L2425.21 489.052C2402.98 498.836 2379.82 506.139 2356.54 515.35L2360.56 525.522ZM2429.62 499.064C2434.62 496.863 2442.71 492.57 2449.65 487.151C2453.12 484.441 2456.49 481.307 2459.03 477.856C2461.55 474.439 2463.57 470.283 2463.57 465.651H2452.63C2452.63 467.067 2451.99 468.969 2450.23 471.366C2448.49 473.73 2445.94 476.166 2442.92 478.529C2436.86 483.255 2429.61 487.116 2425.21 489.052L2429.62 499.064ZM2271.62 558.544C2272.38 559.307 2273.17 560.071 2273.98 560.836L2281.49 552.876C2280.74 552.171 2280.03 551.482 2279.35 550.809L2271.62 558.544ZM2273.98 560.836C2275.6 562.355 2277.31 563.895 2279.05 565.438L2286.31 557.256C2284.6 555.74 2282.98 554.284 2281.49 552.876L2273.98 560.836ZM2279.05 565.438C2288.11 573.481 2297.46 581.318 2302.22 589.408L2311.65 583.862C2305.78 573.887 2294.65 564.656 2286.31 557.256L2279.05 565.438ZM2302.22 589.408C2305.28 594.609 2310.78 600.497 2315.9 603.79L2321.82 594.589C2318.23 592.286 2313.9 587.691 2311.65 583.862L2302.22 589.408ZM2315.9 603.79C2326.41 610.546 2337.5 614.852 2348.18 618.766C2359 622.734 2369.27 626.263 2379.04 631.525L2384.23 621.894C2373.6 616.171 2362.43 612.342 2351.95 608.496C2341.31 604.597 2331.22 600.635 2321.82 594.589L2315.9 603.79ZM2379.04 631.525C2388.06 636.38 2397.84 639.381 2407.19 642.085C2416.71 644.839 2425.71 647.269 2434.07 650.983L2438.51 640.988C2429.3 636.894 2419.42 634.235 2410.23 631.577C2400.87 628.869 2392.1 626.136 2384.23 621.894L2379.04 631.525ZM2434.07 650.983C2451.93 658.921 2472.73 658.303 2490.06 658.303V647.364C2471.91 647.364 2453.79 647.777 2438.51 640.988L2434.07 650.983ZM2276.94 560.124C2277.05 560.822 2277.16 561.519 2277.28 562.215L2288.08 560.478C2287.96 559.774 2287.85 559.068 2287.73 558.361L2276.94 560.124ZM2277.28 562.216C2282.59 595.268 2285.83 626.942 2310.73 654.709L2318.87 647.407C2296.55 622.506 2293.54 594.47 2288.08 560.478L2277.28 562.216ZM2310.73 654.709C2322.04 667.328 2332.52 680.63 2343.4 694.051C2354.24 707.41 2365.41 720.816 2377.89 733.299L2385.63 725.564C2373.57 713.51 2362.7 700.48 2351.9 687.162C2341.15 673.906 2330.42 660.289 2318.87 647.407L2310.73 654.709ZM2377.89 733.299C2389.91 745.312 2403.03 756.631 2415.5 767.922C2428.06 779.297 2440.1 790.758 2450.45 803.406L2458.91 796.479C2448.02 783.172 2435.49 771.262 2422.84 759.814C2410.1 748.281 2397.38 737.322 2385.63 725.564L2377.89 733.299ZM2450.45 803.406C2456.96 811.37 2467.21 816.786 2475.44 821.628C2484.3 826.835 2491.1 831.49 2494.3 837.897L2504.08 833.005C2499.23 823.304 2489.52 817.215 2480.99 812.2C2471.85 806.82 2463.87 802.536 2458.91 796.479L2450.45 803.406ZM2148.41 725.24C2186.71 762.415 2225.71 796.733 2261.3 835.715L2269.38 828.34C2233.5 789.047 2193.81 754.065 2156.03 717.391L2148.41 725.24ZM2261.3 835.715C2269.47 844.658 2278.95 853.786 2287.61 862.708C2296.41 871.784 2304.63 880.909 2311.01 890.48L2320.11 884.413C2313.16 873.989 2304.38 864.287 2295.46 855.092C2286.39 845.745 2277.43 837.161 2269.38 828.34L2261.3 835.715ZM2311.01 890.48C2315.02 896.497 2318.18 902.877 2321.48 909.596C2324.75 916.217 2328.17 923.189 2332.57 929.794L2341.67 923.726C2337.73 917.815 2334.61 911.491 2331.3 904.764C2328.03 898.136 2324.58 891.117 2320.11 884.413L2311.01 890.48ZM2267.29 541.123C2261.94 537.23 2254.39 532.039 2245.98 530.988L2244.62 541.842C2249.89 542.5 2255.33 545.949 2260.86 549.969L2267.29 541.123ZM2245.98 530.988C2241.79 530.464 2237.89 528.382 2232.9 525.681C2228.31 523.194 2222.57 520.031 2216.03 519.547L2215.22 530.456C2219.03 530.738 2222.73 532.608 2227.69 535.298C2232.26 537.775 2238.02 541.016 2244.62 541.842L2245.98 530.988ZM2216.03 519.547C2208.9 519.019 2202.4 517.104 2194.78 515.277C2187.36 513.5 2179.23 511.921 2170.06 512.838L2171.15 523.722C2178.43 522.994 2185.1 524.206 2192.23 525.914C2199.16 527.574 2206.94 529.842 2215.22 530.456L2216.03 519.547ZM2170.06 512.838C2151.07 514.737 2133.37 517.728 2115.61 525.721L2120.1 535.696C2136.26 528.422 2152.58 525.579 2171.15 523.722L2170.06 512.838ZM2115.61 525.721C2107.28 529.47 2099.97 534.357 2093.07 539.061C2086.06 543.837 2079.5 548.4 2072.16 552.068L2077.05 561.851C2085.18 557.786 2092.4 552.752 2099.23 548.1C2106.16 543.376 2112.74 539.004 2120.1 535.696L2115.61 525.721ZM2072.16 552.068C2058.68 558.809 2045.26 564.531 2031.17 569.563L2034.85 579.864C2049.35 574.684 2063.18 568.789 2077.05 561.851L2072.16 552.068ZM2031.17 569.563C2022.36 572.71 2014.34 577.293 2006.8 582.162C2003.03 584.596 1999.33 587.139 1995.71 589.622C1992.07 592.12 1988.5 594.561 1984.91 596.872L1990.82 606.073C1994.57 603.66 1998.27 601.129 2001.89 598.643C2005.54 596.143 2009.12 593.689 2012.74 591.35C2019.98 586.672 2027.19 582.6 2034.85 579.864L2031.17 569.563ZM1984.91 596.871L1983.28 597.917L1989.19 607.119L1990.82 606.074L1984.91 596.871ZM1983.28 597.916C1972.96 604.547 1961.07 612.174 1951.43 620.067L1958.35 628.533C1967.42 621.113 1978.74 613.831 1989.19 607.119L1983.28 597.916ZM1951.43 620.067C1948.46 622.492 1945.3 624.741 1941.93 627.243C1938.63 629.682 1935.2 632.314 1932.13 635.261C1925.87 641.253 1920.76 648.894 1920.76 659.682H1931.7C1931.7 652.905 1934.72 647.929 1939.69 643.158C1942.23 640.723 1945.19 638.437 1948.44 636.034C1951.59 633.695 1955.12 631.18 1958.35 628.533L1951.43 620.067ZM1901.93 633.549C1898.31 614.581 1897.74 595.728 1898.09 576.566C1898.44 557.741 1899.74 537.718 1899.74 518.153H1888.8C1888.8 537.873 1887.53 556.553 1887.16 576.363C1886.8 595.836 1887.36 615.55 1891.18 635.595L1901.93 633.549ZM1899.74 518.153C1899.74 509.871 1899.15 501.649 1898.59 493.686C1898.01 485.658 1897.46 477.898 1897.46 470.216H1886.52C1886.52 478.355 1887.11 486.508 1887.68 494.465C1888.25 502.489 1888.8 510.324 1888.8 518.153H1899.74ZM1897.46 470.216C1897.46 464.154 1898.51 457.907 1899.66 451.291C1900.78 444.874 1902.02 437.974 1902.02 431.41H1891.09C1891.09 436.836 1890.05 442.731 1888.88 449.414C1887.75 455.899 1886.52 463.06 1886.52 470.216H1897.46ZM1846.56 441.784C1845.24 443.506 1843.92 445.359 1842.63 447.184C1841.32 449.034 1840.04 450.859 1838.71 452.644C1836.04 456.248 1833.45 459.356 1830.79 461.576L1837.79 469.979C1841.48 466.898 1844.7 462.932 1847.5 459.157C1848.91 457.252 1850.28 455.31 1851.56 453.501C1852.86 451.667 1854.07 449.968 1855.24 448.428L1846.56 441.784ZM1830.79 461.576C1827.11 464.642 1822.29 466.687 1816.73 468.211C1811.12 469.75 1805.34 470.617 1799.56 471.686L1801.55 482.442C1806.85 481.461 1813.41 480.462 1819.62 478.76C1825.89 477.042 1832.4 474.468 1837.79 469.979L1830.79 461.576ZM1799.56 471.686C1778.15 475.644 1756.55 478.724 1734.86 481.794L1736.39 492.625C1758.06 489.558 1779.88 486.448 1801.55 482.442L1799.56 471.686ZM1734.86 481.794C1709.9 485.326 1689.13 489.857 1664.99 489.857V500.795C1690.15 500.795 1712.37 496.024 1736.39 492.625L1734.86 481.794ZM1664.99 489.857C1656.33 489.857 1647.97 490.443 1639.87 491.012C1631.71 491.584 1623.82 492.139 1615.78 492.139V503.078C1624.27 503.078 1632.54 502.491 1640.64 501.923C1648.79 501.351 1656.77 500.795 1664.99 500.795V489.857ZM1895.53 668.006C1848.27 677.007 1798.37 686.863 1751.58 701.905L1754.92 712.319C1801 697.509 1850.27 687.761 1897.58 678.751L1895.53 668.006ZM1751.58 701.905C1726.09 710.097 1705.5 719.504 1680.01 720.415L1680.4 731.346C1707.9 730.364 1730.88 720.047 1754.92 712.319L1751.58 701.905ZM1680.01 720.415C1668.27 720.834 1656.73 723.222 1645.77 725.38C1634.65 727.572 1624.07 729.542 1613.5 729.542V740.481C1625.29 740.481 1636.86 738.286 1647.89 736.112C1659.09 733.906 1669.71 731.728 1680.4 731.346L1680.01 720.415ZM1613.5 729.542C1573.68 729.542 1531.67 733.175 1495.28 722.778L1492.28 733.295C1530.61 744.247 1575.16 740.481 1613.5 740.481V729.542ZM1495.28 722.778C1488.11 720.728 1480.24 719.039 1472.66 717.326C1464.97 715.591 1457.52 713.819 1450.74 711.561L1447.28 721.938C1454.63 724.386 1462.57 726.261 1470.25 727.995C1478.02 729.752 1485.48 731.353 1492.28 733.295L1495.28 722.778ZM1450.74 711.561C1443.24 709.06 1433.88 705.002 1424.35 704.442L1423.71 715.361C1431.33 715.809 1438.39 718.975 1447.28 721.938L1450.74 711.561ZM1424.35 704.442C1422.9 704.357 1421.13 703.452 1417.67 701.553C1414.87 700.019 1410.55 697.584 1405.77 697.584V708.523C1407.27 708.523 1409.12 709.338 1412.41 711.142C1415.03 712.579 1419.24 715.099 1423.71 715.361L1424.35 704.442ZM1651.92 291.956C1627.66 305.523 1606.72 320.37 1593.15 347.003L1602.9 351.968C1614.98 328.256 1633.6 314.731 1657.26 301.503L1651.92 291.956ZM1593.15 347.003C1589.25 354.665 1587.35 363.173 1586.11 371.388C1585.49 375.51 1585.02 379.662 1584.57 383.646C1584.11 387.668 1583.68 391.512 1583.11 395.196L1593.92 396.859C1594.53 392.924 1594.99 388.861 1595.44 384.878C1595.89 380.858 1596.34 376.908 1596.93 373.02C1598.1 365.215 1599.79 358.072 1602.9 351.968L1593.15 347.003ZM1583.11 395.196C1581.25 407.302 1580.64 419.289 1580.64 431.41H1591.57C1591.57 419.65 1592.17 408.25 1593.92 396.859L1583.11 395.196ZM1580.64 431.41C1580.64 433.753 1580.44 436.581 1580.2 439.874C1579.98 443.085 1579.71 446.668 1579.64 450.217C1579.5 456.961 1579.94 465.124 1583.84 470.967L1592.94 464.9C1591.13 462.193 1590.43 457.249 1590.58 450.446C1590.64 447.221 1590.88 443.92 1591.11 440.653C1591.34 437.467 1591.57 434.221 1591.57 431.41H1580.64ZM1570.21 462.772C1562.31 450.004 1554.52 438.38 1546.91 425.79L1537.55 431.45C1545.04 443.851 1553.43 456.44 1560.91 468.529L1570.21 462.772ZM1546.91 425.79C1543.97 420.937 1541.07 415.243 1537.54 409.019C1534.19 403.101 1530.39 396.932 1526.19 392.423L1518.19 399.886C1521.44 403.369 1524.7 408.538 1528.03 414.408C1531.18 419.972 1534.56 426.515 1537.55 431.45L1546.91 425.79ZM1526.19 392.423C1511.76 376.97 1497.88 358.597 1485.58 341.023L1476.62 347.295C1489.05 365.049 1503.26 383.893 1518.19 399.886L1526.19 392.423ZM1485.58 341.023C1481.73 335.52 1477.08 330.897 1472.76 326.662C1468.32 322.321 1464.25 318.414 1460.84 313.951L1452.15 320.596C1456.14 325.814 1460.85 330.314 1465.1 334.479C1469.47 338.748 1473.42 342.728 1476.62 347.295L1485.58 341.023ZM1460.84 313.951C1454.68 305.9 1447.82 296.199 1438.82 289.131L1432.07 297.732C1439.69 303.726 1445.57 311.993 1452.15 320.596L1460.84 313.951ZM1438.82 289.131L1438.34 288.752L1431.58 297.354L1432.07 297.733L1438.82 289.131ZM1438.34 288.752C1434.51 285.741 1428.92 281.35 1423.8 276.743C1418.48 271.948 1414.43 267.571 1412.94 264.608L1403.16 269.5C1405.68 274.546 1411.26 280.167 1416.48 284.87C1421.91 289.76 1427.78 294.365 1431.58 297.354L1438.34 288.752ZM1361.84 261.865C1348.25 257.333 1332.54 251.518 1316.77 246.929C1300.93 242.321 1284.45 238.758 1268.81 238.758V249.696C1282.92 249.696 1298.25 252.932 1313.71 257.431C1329.23 261.948 1344.3 267.547 1358.39 272.242L1361.84 261.865ZM1268.81 238.758H1201.59V249.696H1268.81V238.758ZM1201.59 238.758C1187.87 238.758 1174.18 238.815 1160.07 242.345L1162.72 252.957C1175.35 249.799 1187.74 249.696 1201.59 249.696V238.758ZM1160.07 242.345C1153.29 244.039 1146.07 244.196 1138.11 244.291C1130.38 244.384 1121.89 244.415 1113.66 246.243L1116.04 256.921C1122.94 255.386 1130.23 255.325 1138.24 255.229C1146.03 255.135 1154.51 255.009 1162.72 252.957L1160.07 242.345ZM1113.66 246.243C1073.41 255.187 1039.64 267.621 1001.49 283.833L1005.77 293.9C1043.6 277.823 1076.69 265.664 1116.04 256.921L1113.66 246.243ZM1001.49 283.833C979.065 293.364 955.287 301.634 931.842 308.472L934.905 318.973C958.703 312.032 982.893 303.622 1005.77 293.9L1001.49 283.833ZM931.842 308.472C921.026 311.627 910.626 313.822 899.498 316.736C888.614 319.587 877.606 323 866.884 328.361L871.776 338.145C881.503 333.281 891.668 330.094 902.269 327.318C912.626 324.605 924.023 322.147 934.905 318.973L931.842 308.472ZM866.884 328.361C859.138 332.234 852.299 337.832 846.14 343.658C840.127 349.347 834.127 355.902 828.939 361.09L836.674 368.825C842.467 363.031 847.679 357.26 853.658 351.604C859.491 346.085 865.424 341.321 871.776 338.145L866.884 328.361ZM828.939 361.09C819.393 370.637 807.872 378.141 795.754 385.878C783.808 393.506 771.225 401.392 760.57 411.455L768.08 419.407C777.835 410.194 789.463 402.873 801.641 395.097C813.646 387.432 826.161 379.337 836.674 368.825L828.939 361.09ZM760.57 411.455C740.968 429.967 715.397 449.91 698.707 473.945L707.691 480.184C723.518 457.393 747.344 438.991 768.08 419.407L760.57 411.455ZM698.707 473.945C694.307 480.28 693.008 488.14 691.988 494.705C690.887 501.785 690.076 507.593 687.586 512.297L697.253 517.415C700.796 510.723 701.802 502.781 702.796 496.386C703.87 489.476 704.944 484.139 707.691 480.184L698.707 473.945ZM687.586 512.297C683.762 519.519 677.778 526.135 670.873 532.706C667.432 535.979 663.865 539.148 660.277 542.37C656.722 545.561 653.153 548.797 649.873 552.078L657.607 559.812C660.657 556.763 664.026 553.703 667.584 550.509C671.108 547.346 674.827 544.042 678.413 540.63C685.559 533.831 692.585 526.232 697.253 517.415L687.586 512.297ZM649.873 552.078C647.691 554.26 643.865 558.292 640.499 562.64C638.818 564.81 637.168 567.167 635.888 569.489C634.677 571.686 633.479 574.409 633.316 577.183L644.235 577.825C644.253 577.524 644.492 576.538 645.467 574.77C646.373 573.127 647.656 571.263 649.148 569.336C652.126 565.489 655.602 561.818 657.607 559.812L649.873 552.078ZM633.316 577.183C632.832 585.404 637.862 593.017 642.55 598.769C645.016 601.796 647.703 604.671 650.108 607.221C652.584 609.846 654.671 612.036 656.228 613.94L664.694 607.013C662.83 604.735 660.408 602.199 658.066 599.716C655.654 597.159 653.217 594.544 651.029 591.86C646.41 586.191 644.019 581.5 644.235 577.825L633.316 577.183ZM656.228 613.94C676.124 638.256 698.384 653.924 723.851 670.13L729.723 660.901C704.493 644.846 683.448 629.935 664.694 607.013L656.228 613.94ZM723.851 670.13C730.403 674.299 737.628 676.98 744.081 679.49L748.046 669.295C741.278 666.663 735.179 664.373 729.723 660.901L723.851 670.13ZM744.081 679.49C747.454 680.802 750.667 682.436 754.139 684.213C757.534 685.95 761.202 687.837 765.115 689.375L769.115 679.194C765.791 677.888 762.607 676.259 759.122 674.475C755.715 672.732 752.02 670.841 748.046 669.295L744.081 679.49ZM765.115 689.375C783.482 696.59 802.903 703.23 820.193 711.42L824.876 701.535C807.145 693.136 786.831 686.154 769.115 679.194L765.115 689.375ZM820.193 711.42C840.412 720.998 861.638 727.604 882.556 733.911C903.592 740.253 924.27 746.282 944.027 754.749L948.336 744.695C927.892 735.934 906.55 729.72 885.714 723.438C864.761 717.121 844.264 710.719 824.876 701.535L820.193 711.42ZM944.027 754.749C977.634 769.152 1009.74 776.957 1043.77 785.465L1046.43 774.853C1012.23 766.305 980.998 758.693 948.336 744.695L944.027 754.749ZM1043.77 785.465C1061.27 789.838 1078.98 793.725 1096.14 798.491L1099.07 787.951C1081.76 783.145 1063.47 779.114 1046.43 774.853L1043.77 785.465ZM1096.14 798.491C1103.94 800.657 1111.82 803.274 1119.88 805.895C1127.88 808.498 1136.03 811.096 1144.09 813.111L1146.74 802.499C1139.09 800.587 1131.27 798.099 1123.26 795.494C1115.31 792.908 1107.15 790.197 1099.07 787.951L1096.14 798.491ZM1144.09 813.111C1179.4 821.94 1212.05 837.95 1246.2 852.89L1250.58 842.869C1217.05 828.199 1183.21 811.617 1146.74 802.499L1144.09 813.111ZM1246.2 852.89C1266.65 861.837 1296.02 870.596 1319.03 870.596V859.658C1298.16 859.658 1270.36 851.524 1250.58 842.869L1246.2 852.89ZM1008.96 516.081C1028.17 505.359 1049.87 505.232 1073.03 508.406C1084.63 509.995 1096.25 512.351 1108.06 514.499C1119.75 516.627 1131.55 518.531 1143.01 519.051L1143.51 508.124C1132.83 507.639 1121.65 505.853 1110.01 503.737C1098.5 501.642 1086.43 499.201 1074.52 497.569C1050.67 494.301 1026.01 494.038 1003.63 506.529L1008.96 516.081ZM1143.01 519.051C1168.09 520.191 1197.08 517.881 1221.48 513.386L1219.5 502.629C1195.83 506.989 1167.68 509.223 1143.51 508.124L1143.01 519.051ZM1221.48 513.386C1248.22 508.461 1276.03 505.571 1303.19 498.328L1300.37 487.759C1273.69 494.874 1247.45 497.48 1219.5 502.629L1221.48 513.386ZM1303.19 498.328C1308.99 496.781 1314.09 493.815 1318.31 491.605C1322.75 489.277 1326.61 487.532 1331.01 487.069L1329.87 476.19C1323.26 476.886 1317.84 479.5 1313.23 481.916C1308.4 484.449 1304.68 486.611 1300.37 487.759L1303.19 498.328ZM1331.01 487.069C1334.4 486.712 1337.35 486.124 1339.27 485.819C1341.44 485.474 1342.32 485.486 1342.84 485.605C1343.27 485.703 1344.95 486.114 1348.82 494.354L1358.72 489.704C1355.02 481.807 1351.43 476.346 1345.28 474.941C1342.51 474.31 1339.78 474.663 1337.56 475.016C1335.09 475.409 1332.88 475.874 1329.87 476.19L1331.01 487.069ZM1348.82 494.354C1356.98 511.716 1364.05 529.643 1371.11 547.78C1378.14 565.865 1385.17 584.182 1393.17 602.057L1403.15 597.59C1395.29 580.018 1388.37 561.989 1381.3 543.814C1374.25 525.69 1367.06 507.443 1358.72 489.704L1348.82 494.354ZM1393.17 602.057C1395.5 607.262 1397.97 612.125 1400.3 617.673C1402.55 623.053 1404.25 628.197 1404.77 632.893L1415.64 631.685C1414.95 625.439 1412.78 619.16 1410.39 613.449C1408.07 607.905 1405.13 602.008 1403.15 597.59L1393.17 602.057ZM1404.77 632.893C1405.76 641.784 1403.65 648.038 1400.24 654.142C1398.46 657.333 1396.38 660.382 1394.05 663.915C1391.78 667.371 1389.34 671.172 1387.18 675.498L1396.96 680.389C1398.82 676.676 1400.95 673.325 1403.19 669.931C1405.37 666.613 1407.76 663.114 1409.79 659.476C1414.01 651.92 1416.94 643.385 1415.64 631.685L1404.77 632.893ZM1365.38 480.931C1389.27 504.824 1414.74 529.032 1440.82 550.762L1447.82 542.359C1422.1 520.924 1396.89 496.971 1373.11 473.197L1365.38 480.931ZM1440.82 550.762C1450.92 559.175 1460.32 568.928 1469.73 579.08C1479.07 589.153 1488.5 599.712 1498.33 609.316L1505.97 601.491C1496.4 592.138 1487.29 581.928 1477.76 571.644C1468.3 561.44 1458.49 551.25 1447.82 542.359L1440.82 550.762ZM1498.33 609.316C1517.34 627.88 1536.85 648.346 1557.44 665.99L1564.55 657.685C1544.33 640.349 1525.37 620.435 1505.97 601.491L1498.33 609.316ZM1557.44 665.99C1562.25 670.118 1567.24 673.828 1571.96 677.43C1576.73 681.076 1581.31 684.67 1585.65 688.768L1593.16 680.816C1588.37 676.299 1583.41 672.414 1578.6 668.737C1573.72 665.015 1569.07 661.556 1564.55 657.685L1557.44 665.99ZM1585.65 688.768C1589.99 692.871 1595.82 696.245 1600.38 699.166C1605.32 702.33 1609.06 705.113 1611.23 708.37L1620.33 702.303C1616.75 696.93 1611.16 693.084 1606.28 689.956C1601.01 686.583 1596.53 683.999 1593.16 680.816L1585.65 688.768ZM1037.85 248.222C1005.99 236.555 973.404 227.771 941.031 218.914L938.144 229.465C970.63 238.352 1002.74 247.015 1034.09 258.493L1037.85 248.222ZM941.031 218.914C936.977 217.805 932.813 216.549 928.493 215.252C924.198 213.964 919.763 212.641 915.289 211.441C906.363 209.049 897.02 207.074 887.753 206.802L887.431 217.735C895.446 217.971 903.837 219.696 912.457 222.007C916.755 223.159 921.046 224.438 925.349 225.729C929.627 227.013 933.934 228.313 938.144 229.465L941.031 218.914ZM887.753 206.802C882.459 206.646 875.781 206.365 869.209 206.713C862.687 207.059 855.699 208.041 849.82 210.714L854.346 220.672C858.364 218.845 863.731 217.957 869.788 217.636C875.797 217.317 881.925 217.573 887.431 217.735L887.753 206.802ZM849.82 210.714C845.066 212.875 838.224 214.327 830.635 215.444C826.905 215.992 823.125 216.444 819.472 216.871C815.854 217.293 812.314 217.697 809.206 218.141L810.753 228.97C813.687 228.55 817.054 228.166 820.741 227.735C824.394 227.308 828.319 226.84 832.228 226.265C839.915 225.134 848.083 223.518 854.346 220.672L849.82 210.714ZM809.206 218.141C782.053 222.02 756.751 227.888 730.648 233.821L733.072 244.487C759.281 238.531 784.126 232.773 810.753 228.97L809.206 218.141ZM730.648 233.821C682.104 244.853 632.512 254.766 584.013 267.34L586.758 277.928C635.059 265.406 684.137 255.609 733.072 244.487L730.648 233.821ZM584.013 267.34C562.075 273.027 536.605 273.861 513.176 275.163L513.783 286.084C536.679 284.812 563.501 283.958 586.758 277.928L584.013 267.34ZM513.176 275.163C511.448 275.259 507.889 275.218 502.937 275.226C498.151 275.234 492.362 275.294 486.648 275.615C480.984 275.933 475.153 276.52 470.354 277.65C467.961 278.214 465.6 278.963 463.573 280.01C461.617 281.021 459.386 282.608 458.114 285.152L467.898 290.044C467.691 290.458 467.596 290.243 468.592 289.729C469.517 289.251 470.925 288.753 472.862 288.297C476.724 287.387 481.802 286.843 487.262 286.536C492.672 286.232 498.222 286.173 502.956 286.164C507.523 286.157 511.663 286.202 513.783 286.084L513.176 275.163ZM292.5 544.848C326.89 579.238 365.461 608.508 413.584 622.081L416.554 611.554C370.981 598.7 333.99 570.868 300.235 537.113L292.5 544.848ZM413.584 622.081C424.829 625.253 435.091 628.999 446.596 632.521C457.791 635.947 469.427 638.903 481.846 639.897L482.718 628.993C471.452 628.092 460.686 625.394 449.798 622.061C439.22 618.823 427.718 614.703 416.554 611.554L413.584 622.081ZM481.846 639.897C486.008 640.23 490.357 640.74 494.957 641.253C499.511 641.761 504.269 642.265 509.04 642.55C518.533 643.116 528.525 642.846 537.783 639.76L534.324 629.383C527.026 631.816 518.674 632.166 509.691 631.631C505.225 631.365 500.711 630.888 496.169 630.382C491.672 629.881 487.098 629.344 482.718 628.993L481.846 639.897ZM297.952 773.12C299.4 771.671 300.839 770.203 302.27 768.719L294.397 761.125C293.005 762.569 291.612 763.99 290.217 765.385L297.952 773.12ZM302.27 768.719C320.86 749.445 337.539 728.503 358.282 714.427L352.14 705.376C330.142 720.303 311.966 742.91 294.397 761.125L302.27 768.719ZM358.282 714.427C378.971 700.388 395.912 689.725 418.837 680.754L414.851 670.568C390.763 679.994 373.011 691.214 352.14 705.376L358.282 714.427ZM418.837 680.754C459.033 665.025 500.412 649.172 542.901 649.172V638.234C498.013 638.234 454.726 654.965 414.851 670.568L418.837 680.754ZM1922.93 694.732L2080.44 724.407L2082.47 713.658L1924.96 683.983L1922.93 694.732Z" fill="black"/>
<g filter="url(#filter0_d_171_1390)">
<path d="M1277.51 712.013C1279.09 710.383 1279.04 707.786 1277.41 706.213L1250.85 680.574C1249.22 679 1246.62 679.046 1245.05 680.676C1243.48 682.306 1243.52 684.903 1245.15 686.476L1268.76 709.267L1245.97 732.876C1244.4 734.506 1244.45 737.103 1246.07 738.676C1247.7 740.25 1250.3 740.204 1251.88 738.574L1277.51 712.013ZM974.408 718.568L1274.64 713.265L1274.49 705.063L974.263 710.366L974.408 718.568Z" fill="#FF9242"/>
</g>
<g filter="url(#filter1_d_171_1390)">
<path d="M1644.71 661.459C1646.76 663.13 1649.78 662.824 1651.45 660.776L1678.67 627.404C1680.34 625.356 1680.04 622.341 1677.99 620.671C1675.94 619 1672.93 619.306 1671.26 621.353L1647.05 651.018L1617.39 626.817C1615.34 625.146 1612.33 625.452 1610.66 627.5C1608.99 629.548 1609.29 632.563 1611.34 634.233L1644.71 661.459ZM1629.28 523.202L1642.98 658.234L1652.5 657.268L1638.8 522.236L1629.28 523.202Z" fill="#FF9242"/>
</g>
<g filter="url(#filter2_d_171_1390)">
<path d="M978.495 597.306C977.188 595.008 974.267 594.205 971.969 595.512L934.531 616.805C932.234 618.111 931.431 621.033 932.737 623.33C934.044 625.628 936.965 626.431 939.263 625.124L972.541 606.197L991.468 639.476C992.775 641.773 995.697 642.576 997.994 641.27C1000.29 639.963 1001.09 637.041 999.788 634.744L978.495 597.306ZM949.274 708.887L978.95 600.94L969.721 598.403L940.046 706.35L949.274 708.887Z" fill="#FF9242"/>
</g>
<g filter="url(#filter3_d_171_1390)">
<path d="M1381.62 785.793C1379.59 784.105 1376.57 784.385 1374.88 786.418L1347.37 819.556C1345.68 821.589 1345.96 824.606 1348 826.295C1350.03 827.983 1353.05 827.703 1354.74 825.67L1379.19 796.214L1408.65 820.669C1410.68 822.357 1413.7 822.077 1415.39 820.044C1417.07 818.01 1416.79 814.993 1414.76 813.305L1381.62 785.793ZM1395.64 921.753L1383.33 789.033L1373.8 789.917L1386.11 922.637L1395.64 921.753Z" fill="#FF9242"/>
</g>
<g filter="url(#filter4_d_171_1390)">
<path d="M1377.67 373.039C1379.39 375.044 1382.41 375.273 1384.42 373.551L1417.09 345.487C1419.09 343.765 1419.32 340.744 1417.6 338.739C1415.88 336.734 1412.86 336.505 1410.85 338.227L1381.81 363.172L1356.86 334.131C1355.14 332.126 1352.12 331.897 1350.12 333.619C1348.11 335.341 1347.88 338.363 1349.6 340.367L1377.67 373.039ZM1383.37 279.291L1376.53 369.559L1386.07 370.283L1392.92 280.015L1383.37 279.291Z" fill="#FF9242"/>
</g>
<circle cx="414.05" cy="311.777" r="95.1974" fill="#333333"/>
<circle cx="414.05" cy="311.776" r="90.2675" fill="#F2C94C"/>
<circle cx="269.091" cy="528.629" r="95.1974" fill="#333333"/>
<circle cx="269.091" cy="528.629" r="90.2675" fill="#F2C94C"/>
<circle cx="619.717" cy="628.757" r="95.1974" fill="#333333"/>
<circle cx="619.717" cy="628.756" r="90.2675" fill="#9B51E0"/>
<circle cx="744.047" cy="413.396" r="95.1974" transform="rotate(-75 744.047 413.396)" fill="#333333"/>
<circle cx="744.047" cy="413.396" r="90.2675" transform="rotate(-75 744.047 413.396)" fill="#56CCF2"/>
<path d="M656.612 390.962L744.713 414.569L788.989 491.681C769.018 503.146 744.685 507.019 720.685 500.588C672.839 487.768 644.321 438.823 656.612 390.962Z" fill="#828282"/>
<path d="M656.612 390.962L744.712 414.568L822.782 369.247C811.296 348.768 791.881 332.761 767.41 326.204C719.256 313.301 669.759 341.878 656.856 390.033C656.773 390.343 656.692 390.652 656.612 390.962Z" fill="#936349" fill-opacity="0.99"/>
<circle cx="2283.54" cy="538.972" r="95.1974" transform="rotate(-75 2283.54 538.972)" fill="#56CCF2"/>
<circle cx="2283.54" cy="538.972" r="90.2675" transform="rotate(-75 2283.54 538.972)" fill="#6FCF97"/>
<path d="M2196.11 516.538L2284.21 540.145L2328.48 617.257C2308.51 628.722 2284.18 632.595 2260.18 626.164C2212.33 613.344 2183.82 564.399 2196.11 516.538Z" fill="#56CCF2"/>
<path d="M2196.11 516.538L2284.21 540.144L2362.28 494.823C2350.79 474.344 2331.38 458.337 2306.91 451.78C2258.75 438.877 2209.25 467.454 2196.35 515.609C2196.27 515.918 2196.19 516.228 2196.11 516.538Z" fill="#219653"/>
<circle cx="1008.55" cy="509.404" r="95.1974" fill="#333333"/>
<circle cx="1008.55" cy="509.404" r="90.2675" fill="#9B51E0"/>
<ellipse cx="937.495" cy="729.411" rx="94.6705" ry="95.1974" fill="#333333"/>
<circle cx="937.495" cy="729.411" r="90.2675" fill="#828282"/>
<mask id="mask0_171_1390" style="mask-type:alpha" maskUnits="userSpaceOnUse" x="847" y="639" width="181" height="181">
<circle cx="937.495" cy="729.411" r="90.2675" fill="#C4C4C4"/>
</mask>
<g mask="url(#mask0_171_1390)">
<rect x="936.182" y="623.714" width="127.281" height="204.891" fill="#9B51E0"/>
</g>
<ellipse cx="1077.18" cy="265.808" rx="94.6705" ry="95.1974" fill="#333333"/>
<circle cx="1077.18" cy="265.808" r="90.2675" fill="#56CCF2"/>
<mask id="mask1_171_1390" style="mask-type:alpha" maskUnits="userSpaceOnUse" x="986" y="175" width="182" height="182">
<circle cx="1077.18" cy="265.808" r="90.2675" fill="#C4C4C4"/>
</mask>
<g mask="url(#mask1_171_1390)">
<rect x="1075.87" y="160.111" width="127.281" height="204.891" fill="#9B51E0"/>
</g>
<ellipse cx="1369.23" cy="477.744" rx="94.6705" ry="95.1974" fill="#333333"/>
<circle cx="1369.23" cy="477.743" r="90.2675" fill="#56CCF2"/>
<mask id="mask2_171_1390" style="mask-type:alpha" maskUnits="userSpaceOnUse" x="1278" y="387" width="182" height="182">
<circle cx="1369.23" cy="477.743" r="90.2675" fill="#C4C4C4"/>
</mask>
<g mask="url(#mask2_171_1390)">
<rect x="1367.92" y="372.046" width="127.281" height="204.891" fill="#9B51E0"/>
</g>
<circle cx="1374.16" cy="689.939" r="95.1974" fill="#333333"/>
<circle cx="1374.16" cy="689.939" r="90.2675" fill="#9B51E0"/>
<circle cx="1667.04" cy="761.571" r="95.1974" fill="#333333"/>
<circle cx="1667.04" cy="761.571" r="90.2675" fill="#9B51E0"/>
<circle cx="1621.1" cy="502.172" r="95.1974" fill="#333333"/>
<circle cx="1621.1" cy="502.171" r="90.2675" fill="#56CCF2"/>
<circle cx="1669.71" cy="290.698" r="95.1974" fill="#333333"/>
<circle cx="1669.71" cy="290.698" r="90.2675" fill="#56CCF2"/>
<circle cx="1901.67" cy="428.997" r="95.1974" fill="#333333"/>
<circle cx="1901.67" cy="428.996" r="90.2675" fill="#56CCF2"/>
<circle cx="2080.01" cy="274.723" r="95.1974" fill="#333333"/>
<circle cx="2080.01" cy="274.723" r="90.2675" fill="#219653"/>
<circle cx="2308.67" cy="310.824" r="95.1974" fill="#333333"/>
<circle cx="2308.67" cy="310.824" r="90.2675" fill="#219653"/>
<circle cx="2479.24" cy="438.362" r="95.1974" fill="#333333"/>
<circle cx="2479.24" cy="438.361" r="90.2675" fill="#219653"/>
<ellipse cx="2541.21" cy="657.752" rx="94.6705" ry="95.1974" fill="#333333"/>
<circle cx="2541.21" cy="657.751" r="90.2675" fill="#27AE60"/>
<mask id="mask3_171_1390" style="mask-type:alpha" maskUnits="userSpaceOnUse" x="2450" y="567" width="182" height="182">
<circle cx="2541.21" cy="657.751" r="90.2675" fill="#C4C4C4"/>
</mask>
<g mask="url(#mask3_171_1390)">
<rect x="2539.9" y="552.054" width="127.281" height="204.891" fill="#6FCF97"/>
</g>
<circle cx="2332.64" cy="937.176" r="95.1974" fill="#333333"/>
<circle cx="2332.64" cy="937.176" r="90.2675" fill="#6FCF97"/>
<circle cx="2541.21" cy="851.839" r="95.1974" fill="#333333"/>
<circle cx="2541.21" cy="851.839" r="90.2675" fill="#6FCF97"/>
<circle cx="1899.48" cy="667.611" r="95.1974" fill="#333333"/>
<circle cx="1899.48" cy="667.611" r="90.2675" fill="#56CCF2"/>
<circle cx="2147.5" cy="714.094" r="95.1974" fill="#333333"/>
<circle cx="2147.5" cy="714.094" r="90.2675" fill="#56CCF2"/>
<circle cx="529.45" cy="884.672" r="95.1974" fill="#333333"/>
<circle cx="529.449" cy="884.672" r="90.2675" fill="#828282"/>
<circle cx="876.469" cy="937.176" r="95.1974" fill="#333333"/>
<circle cx="876.468" cy="937.176" r="90.2675" fill="#828282"/>
<circle cx="1378.57" cy="923.688" r="95.1974" fill="#333333"/>
<circle cx="1378.57" cy="923.687" r="90.2675" fill="#828282"/>
<circle cx="1915.06" cy="894.532" r="95.1974" fill="#333333"/>
<circle cx="1915.06" cy="894.532" r="90.2675" fill="#828282"/>
<ellipse cx="292.08" cy="765.417" rx="94.6705" ry="95.1974" fill="#333333"/>
<circle cx="292.08" cy="765.416" r="90.2675" fill="#828282"/>
<mask id="mask4_171_1390" style="mask-type:alpha" maskUnits="userSpaceOnUse" x="201" y="675" width="182" height="181">
<circle cx="292.08" cy="765.416" r="90.2675" fill="#C4C4C4"/>
</mask>
<g mask="url(#mask4_171_1390)">
<rect x="290.767" y="659.719" width="127.281" height="204.891" fill="#F2C94C"/>
</g>
<ellipse cx="1404.51" cy="234.087" rx="94.6705" ry="95.1974" fill="#333333"/>
<circle cx="1404.51" cy="234.087" r="90.2675" fill="#56CCF2"/>
<mask id="mask5_171_1390" style="mask-type:alpha" maskUnits="userSpaceOnUse" x="1314" y="143" width="181" height="182">
<circle cx="1404.51" cy="234.087" r="90.2675" fill="#C4C4C4"/>
</mask>
<g mask="url(#mask5_171_1390)">
<rect x="1403.2" y="128.389" width="127.281" height="204.891" fill="#9B51E0"/>
</g>
<defs>
<filter id="filter0_d_171_1390" x="973.169" y="679.423" width="306.59" height="62.5917" filterUnits="userSpaceOnUse" color-interpolation-filters="sRGB">
<feFlood flood-opacity="0" result="BackgroundImageFix"/>
<feColorMatrix in="SourceAlpha" type="matrix" values="0 0 0 0 0 0 0 0 0 0 0 0 0 0 0 0 0 0 127 0" result="hardAlpha"/>
<feOffset dy="1.09383"/>
<feGaussianBlur stdDeviation="0.546917"/>
<feColorMatrix type="matrix" values="0 0 0 0 0 0 0 0 0 0 0 0 0 0 0 0 0 0 0.25 0"/>
<feBlend mode="normal" in2="BackgroundImageFix" result="effect1_dropShadow_171_1390"/>
<feBlend mode="normal" in="SourceGraphic" in2="effect1_dropShadow_171_1390" result="shape"/>
</filter>
<filter id="filter1_d_171_1390" x="1608.49" y="522.236" width="72.3579" height="142.489" filterUnits="userSpaceOnUse" color-interpolation-filters="sRGB">
<feFlood flood-opacity="0" result="BackgroundImageFix"/>
<feColorMatrix in="SourceAlpha" type="matrix" values="0 0 0 0 0 0 0 0 0 0 0 0 0 0 0 0 0 0 127 0" result="hardAlpha"/>
<feOffset dy="1.09383"/>
<feGaussianBlur stdDeviation="0.546917"/>
<feColorMatrix type="matrix" values="0 0 0 0 0 0 0 0 0 0 0 0 0 0 0 0 0 0 0.25 0"/>
<feBlend mode="normal" in2="BackgroundImageFix" result="effect1_dropShadow_171_1390"/>
<feBlend mode="normal" in="SourceGraphic" in2="effect1_dropShadow_171_1390" result="shape"/>
</filter>
<filter id="filter2_d_171_1390" x="931.017" y="594.885" width="70.4914" height="116.19" filterUnits="userSpaceOnUse" color-interpolation-filters="sRGB">
<feFlood flood-opacity="0" result="BackgroundImageFix"/>
<feColorMatrix in="SourceAlpha" type="matrix" values="0 0 0 0 0 0 0 0 0 0 0 0 0 0 0 0 0 0 127 0" result="hardAlpha"/>
<feOffset dy="1.09383"/>
<feGaussianBlur stdDeviation="0.546917"/>
<feColorMatrix type="matrix" values="0 0 0 0 0 0 0 0 0 0 0 0 0 0 0 0 0 0 0.25 0"/>
<feBlend mode="normal" in2="BackgroundImageFix" result="effect1_dropShadow_171_1390"/>
<feBlend mode="normal" in="SourceGraphic" in2="effect1_dropShadow_171_1390" result="shape"/>
</filter>
<filter id="filter3_d_171_1390" x="1345.18" y="784.689" width="72.4084" height="140.135" filterUnits="userSpaceOnUse" color-interpolation-filters="sRGB">
<feFlood flood-opacity="0" result="BackgroundImageFix"/>
<feColorMatrix in="SourceAlpha" type="matrix" values="0 0 0 0 0 0 0 0 0 0 0 0 0 0 0 0 0 0 127 0" result="hardAlpha"/>
<feOffset dy="1.09383"/>
<feGaussianBlur stdDeviation="0.546917"/>
<feColorMatrix type="matrix" values="0 0 0 0 0 0 0 0 0 0 0 0 0 0 0 0 0 0 0.25 0"/>
<feBlend mode="normal" in2="BackgroundImageFix" result="effect1_dropShadow_171_1390"/>
<feBlend mode="normal" in="SourceGraphic" in2="effect1_dropShadow_171_1390" result="shape"/>
</filter>
<filter id="filter4_d_171_1390" x="1347.35" y="279.291" width="72.4942" height="97.6027" filterUnits="userSpaceOnUse" color-interpolation-filters="sRGB">
<feFlood flood-opacity="0" result="BackgroundImageFix"/>
<feColorMatrix in="SourceAlpha" type="matrix" values="0 0 0 0 0 0 0 0 0 0 0 0 0 0 0 0 0 0 127 0" result="hardAlpha"/>
<feOffset dy="1.09383"/>
<feGaussianBlur stdDeviation="0.546917"/>
<feColorMatrix type="matrix" values="0 0 0 0 0 0 0 0 0 0 0 0 0 0 0 0 0 0 0.25 0"/>
<feBlend mode="normal" in2="BackgroundImageFix" result="effect1_dropShadow_171_1390"/>
<feBlend mode="normal" in="SourceGraphic" in2="effect1_dropShadow_171_1390" result="shape"/>
</filter>
</defs>
</svg>
