<svg width="3019" height="1705" viewBox="0 0 3019 1705" fill="none" xmlns="http://www.w3.org/2000/svg">
<path d="M560.339 229.352L757.87 199.142L987.935 287.449L1059.98 254.915L1227.3 199.142L1541.02 213.085L1606.09 287.449L1680.45 431.53L1917.49 563.992L2207.98 540.753L2317.2 310.688L2554.24 213.085L2575.15 540.753V580.259V754.551L2593.74 1024.12L2410.15 1207.71V1275.1V1470.31L2142.91 1519.11H2042.98H1740.87L1819.89 1400.59L1836.15 1193.77L1877.98 1131.02L1943.05 963.701L2042.98 996.235H2249.81L1943.05 596.527" stroke="black" stroke-width="23.0251"/>
<path d="M2198.68 550.049L2094.11 794.057L1940.73 979.968" stroke="black" stroke-width="23.0251"/>
<path d="M2421.77 1200.74L2235.86 1012.5M1754.82 1467.99L1489.89 1337.85H1543.34L1094.83 1031.09L1048.36 954.406L920.542 803.353L711.392 912.576L399.991 803.353L467.384 733.636V505.895L495.27 236.324L555.691 310.689L711.392 447.798L943.781 568.64L1022.79 533.782L1173.85 491.952L997.23 310.689L957.724 366.462V491.952M753.222 192.17L727.659 412.94M1236.59 236.324L1201.73 447.798M1517.78 264.211C1509.26 348.646 1483.85 520.768 1450.39 533.782L1657.21 447.798" stroke="black" stroke-width="23.0251"/>
<path d="M1415.58 586.378L1284.34 769.119C1251.67 725.372 1186.32 612.958 1186.32 513.281M1219.55 759.151C1132.06 750.291 953.08 748.519 937.132 812.312C917.196 892.054 1001.92 701.006 937.132 571.426M1340.82 1199.39C1299.85 1170.04 1224.53 1051.54 1251.11 812.312M1229.52 850.522C1174.14 897.038 1074.02 996.383 1116.55 1021.63M1312.58 1216C1247.79 1197.18 1086.65 1185.1 960.39 1287.44M1061.73 1068.15C1022.96 1141.8 952.416 1293.42 980.325 1310.7M458.682 850.522L470.311 1147.89V1370.5L761.036 1500.08C773.218 1422 774.658 1250.89 682.955 1191.09C591.252 1131.28 611.52 1214.9 633.117 1264.18L530.117 1310.7M503.537 1121.31L682.955 1216M797.584 1232.62L918.858 1254.21M503.537 1056.52L682.955 903.683" stroke="black" stroke-width="23.0251"/>
<path d="M2304.37 368.75C2373.03 372.072 2521 401.311 2563.53 491.685" stroke="black" stroke-width="23.0251"/>
<circle cx="1180.98" cy="493.054" r="115.126" fill="#333333"/>
<circle cx="1180.98" cy="493.054" r="109.164" fill="#27AE60"/>
<circle cx="1231.64" cy="204.473" r="115.126" fill="#333333"/>
<circle cx="1231.64" cy="204.473" r="109.164" fill="#27AE60"/>
<circle cx="990.643" cy="293.503" r="115.126" fill="#333333"/>
<circle cx="990.643" cy="293.503" r="109.164" fill="#27AE60"/>
<circle cx="757.321" cy="196.798" r="115.126" fill="#333333"/>
<circle cx="757.321" cy="196.797" r="109.164" fill="#27AE60"/>
<circle cx="491.765" cy="261.268" r="115.126" fill="#333333"/>
<circle cx="491.765" cy="261.268" r="109.164" fill="#27AE60"/>
<circle cx="473.345" cy="523.754" r="115.126" fill="#333333"/>
<circle cx="473.345" cy="523.754" r="109.164" fill="#27AE60"/>
<circle cx="716.054" cy="450.074" r="115.126" fill="#333333"/>
<circle cx="716.054" cy="450.074" r="109.164" fill="#27AE60"/>
<circle cx="935.738" cy="551.562" r="115.126" fill="#333333"/>
<circle cx="935.738" cy="551.562" r="109.164" fill="#27AE60"/>
<ellipse cx="1281.34" cy="781.72" rx="114.488" ry="115.126" transform="rotate(120 1281.34 781.72)" fill="#333333"/>
<circle cx="1281.34" cy="781.72" r="109.164" transform="rotate(120 1281.34 781.72)" fill="#F2C94C"/>
<mask id="mask0_57_7" style="mask-type:alpha" maskUnits="userSpaceOnUse" x="1172" y="672" width="219" height="219">
<circle cx="1281.34" cy="781.72" r="109.164" transform="rotate(120 1281.34 781.72)" fill="#C4C4C4"/>
</mask>
<g mask="url(#mask0_57_7)">
<rect x="1392.83" y="844.256" width="153.925" height="247.782" transform="rotate(120 1392.83 844.256)" fill="#9B51E0"/>
</g>
<ellipse cx="1105.26" cy="1021" rx="114.488" ry="115.126" transform="rotate(120 1105.26 1021)" fill="#333333"/>
<circle cx="1105.26" cy="1021" r="109.164" transform="rotate(120 1105.26 1021)" fill="#F2C94C"/>
<mask id="mask1_57_7" style="mask-type:alpha" maskUnits="userSpaceOnUse" x="996" y="911" width="219" height="220">
<circle cx="1105.26" cy="1021" r="109.164" transform="rotate(120 1105.26 1021)" fill="#C4C4C4"/>
</mask>
<g mask="url(#mask1_57_7)">
<rect x="1216.75" y="1083.54" width="153.925" height="247.782" transform="rotate(120 1216.75 1083.54)" fill="#9B51E0"/>
</g>
<circle cx="1540.18" cy="222.537" r="115.126" fill="#333333"/>
<circle cx="1540.18" cy="222.536" r="109.164" fill="#F2C94C"/>
<circle cx="1455.93" cy="535.678" r="115.126" fill="#333333"/>
<circle cx="1455.93" cy="535.678" r="109.164" fill="#F2C94C"/>
<circle cx="1686.18" cy="432.477" r="115.126" fill="#333333"/>
<circle cx="1686.18" cy="432.476" r="109.164" fill="#F2C94C"/>
<circle cx="1916.43" cy="565.199" r="115.126" fill="#333333"/>
<circle cx="1916.43" cy="565.199" r="109.164" fill="#F2C94C"/>
<circle cx="935.738" cy="551.563" r="115.126" fill="#333333"/>
<circle cx="935.738" cy="551.562" r="109.164" fill="#27AE60"/>
<circle cx="940.343" cy="809.265" r="115.126" fill="#333333"/>
<circle cx="940.343" cy="809.265" r="109.164" fill="#56CCF2"/>
<circle cx="459.53" cy="827.638" r="115.126" fill="#333333"/>
<circle cx="459.53" cy="827.637" r="109.164" fill="#56CCF2"/>
<circle cx="689.781" cy="924.391" r="115.126" fill="#333333"/>
<circle cx="689.781" cy="924.391" r="109.164" fill="#56CCF2"/>
<circle cx="462.422" cy="1085.26" r="115.126" fill="#333333"/>
<circle cx="462.422" cy="1085.26" r="109.164" fill="#56CCF2"/>
<circle cx="477.416" cy="1342.88" r="115.126" fill="#333333"/>
<circle cx="477.416" cy="1342.88" r="109.164" fill="#56CCF2"/>
<circle cx="707.667" cy="1218.63" r="115.126" fill="#333333"/>
<circle cx="707.667" cy="1218.63" r="109.164" fill="#56CCF2"/>
<circle cx="758.856" cy="1476.99" r="115.126" fill="#333333"/>
<circle cx="758.857" cy="1476.99" r="109.164" fill="#9B51E0"/>
<circle cx="980.076" cy="1272.3" r="115.126" fill="#333333"/>
<circle cx="980.076" cy="1272.3" r="109.164" fill="#9B51E0"/>
<circle cx="1345.05" cy="1198.85" r="115.126" fill="#333333"/>
<circle cx="1345.05" cy="1198.85" r="109.164" fill="#9B51E0"/>
<circle cx="1563.2" cy="1361.69" r="115.126" fill="#333333"/>
<circle cx="1563.2" cy="1361.69" r="109.164" fill="#9B51E0"/>
<circle cx="1801.3" cy="1495.06" r="115.126" fill="#333333"/>
<circle cx="1801.3" cy="1495.06" r="109.164" fill="#9B51E0"/>
<circle cx="1842.57" cy="1227.66" r="115.126" fill="#333333"/>
<circle cx="1842.57" cy="1227.66" r="109.164" fill="#9B51E0"/>
<circle cx="2232.46" cy="1000.3" r="115.126" fill="#333333"/>
<circle cx="2232.46" cy="1000.3" r="109.164" fill="#9B51E0"/>
<circle cx="1946.66" cy="982.251" r="115.126" fill="#333333"/>
<circle cx="1946.66" cy="982.251" r="109.164" fill="#9B51E0"/>
<path d="M1945.5 873.094V983.395L1869.28 1059.25C1849.64 1039.51 1837.5 1012.3 1837.5 982.251C1837.5 922.349 1885.74 873.717 1945.5 873.094Z" fill="#F2C94C"/>
<path d="M1945.5 873.093V983.395L2022.88 1060.4C2043.2 1040.58 2055.82 1012.89 2055.82 982.251C2055.82 921.962 2006.95 873.087 1946.66 873.087C1946.27 873.087 1945.89 873.089 1945.5 873.093Z" fill="#936349" fill-opacity="0.99"/>
<circle cx="2098.45" cy="778.451" r="115.126" fill="#333333"/>
<circle cx="2098.45" cy="778.451" r="109.164" fill="#9B51E0"/>
<path d="M2097.29 669.293V779.595L2021.07 855.451C2001.42 835.712 1989.28 808.499 1989.28 778.451C1989.28 718.549 2037.53 669.916 2097.29 669.293Z" fill="#F2C94C"/>
<path d="M2097.29 669.293V779.594L2174.66 856.604C2194.99 836.778 2207.61 809.088 2207.61 778.451C2207.61 718.161 2158.74 669.287 2098.45 669.287C2098.06 669.287 2097.67 669.289 2097.29 669.293Z" fill="#936349" fill-opacity="0.99"/>
<circle cx="2194.09" cy="535.678" r="115.126" fill="#333333"/>
<circle cx="2194.09" cy="535.678" r="109.164" fill="#93634A"/>
<circle cx="2328.7" cy="323.314" r="115.126" fill="#333333"/>
<circle cx="2328.7" cy="323.313" r="109.164" fill="#93634A"/>
<circle cx="2558.95" cy="222.537" r="115.126" fill="#333333"/>
<circle cx="2558.95" cy="222.536" r="109.164" fill="#93634A"/>
<circle cx="2570.87" cy="499.017" r="115.126" fill="#333333"/>
<circle cx="2570.87" cy="499.017" r="109.164" fill="#EB5757"/>
<circle cx="2570.87" cy="746.742" r="115.126" fill="#333333"/>
<circle cx="2570.87" cy="746.742" r="109.164" fill="#EB5757"/>
<circle cx="2582.8" cy="1000.3" r="115.126" fill="#333333"/>
<circle cx="2582.8" cy="1000.3" r="109.164" fill="#EB5757"/>
<circle cx="2418.38" cy="1200.38" r="115.126" fill="#333333"/>
<circle cx="2418.38" cy="1200.38" r="109.164" fill="#EB5757"/>
<circle cx="2382.89" cy="1453.94" r="115.126" fill="#333333"/>
<circle cx="2382.89" cy="1453.94" r="109.164" fill="#EB5757"/>
<circle cx="2134.76" cy="1506.98" r="115.126" fill="#333333"/>
<circle cx="2134.76" cy="1506.98" r="109.164" fill="#EB5757"/>
</svg>
